<?xml version="1.0" encoding="UTF-8"?>
<svg id="Capa_2" data-name="Capa 2" xmlns="http://www.w3.org/2000/svg" viewBox="0 0 211.13 211.13">
  <defs>
    <style>
      .cls-1 {
        fill: #f75c2d;
      }

      .cls-2 {
        fill: #1a1a1a;
      }

      .cls-3 {
        fill: #f4f4f0;
      }
    </style>
  </defs>
  <g id="Capa_1-2" data-name="Capa 1">
    <rect class="cls-2" width="211.13" height="211.13" rx="21.72" ry="21.72"/>
    <g>
      <path class="cls-3" d="M138.69,139.03v2.83c0,5-4.05,9.05-9.05,9.05h-38.15c-5,0-9.05-4.05-9.05-9.05v-11.32l.19-11.54c0-1.07-.31-2.11-.89-3.01l-5.73-8.83-3.16-4.88c-.59-.91-.33-2.13.59-2.72.33-.21.69-.31,1.05-.31.57,0,1.14.25,1.52.73.02.02.04.04.05.07l4.25,5.74c.84,1.14,2.44,1.39,3.6.57l.97-.69c1.57-1.11,2.08-3.21,1.22-4.93l-2.7-5.36c-.39-.77-.15-1.7.55-2.19l17.03-11.84c.88-.62,2.1-.41,2.73.47l.2.28s0,.01.01.02c.49.69.46,1.6,0,2.26-.12.18-.28.35-.48.48l-9.85,6.95c-.36.25-.44.74-.2,1.1.15.23.41.36.67.36.16,0,.32-.05.46-.15l9.39-6.56.47-.32c.83-.58,2.11-.47,2.75.32.29.37.44.8.44,1.24,0,.61-.28,1.21-.82,1.6l-2.83,2.05-6.45,4.68c-.37.27-.44.8-.16,1.15l.06.08c.27.34.75.4,1.1.15l5.44-4,3.86-2.84c.83-.61,2-.48,2.67.31l.1.12c.74.87.6,2.18-.32,2.87l-6.31,4.41-3.34,2.34c-.44.31-.55.92-.23,1.36.19.27.49.41.79.41.2,0,.4-.06.57-.19l2.21-1.62,6.78-4.97c.84-.59,1.99-.44,2.65.35l.15.18c.73.88.57,2.2-.36,2.87l-7.82,5.9c-.88.63-1.4,1.65-1.4,2.73v18.11c0,2.28,1.85,4.14,4.14,4.14h21.59c5,0,9.05,4.05,9.05,9.05Z"/>
      <path class="cls-1" d="M80.79,95.62l2.96,5.7c.15.28.22.59.22.9,0,.51-.2,1-.57,1.38-.88.88-2.35.72-3.02-.34l-4.38-6.95-2.94-4.67c-.83-1.32-.84-3,0-4.33l2.95-4.29,4.51-6.57c.75-1.1,1.16-2.41,1.16-3.74l-.92-6.32c-.47-3.25,2.05-6.17,5.34-6.17h12.43c2.98,0,5.39,2.41,5.39,5.39v10.99l-22.38,15.78c-1.02.75-1.33,2.13-.75,3.24Z"/>
    </g>
  </g>
</svg>